# xmcd CD database file
#
# Track frame offsets:
#	150
#	30611
#	63041
#	89363
#	115244
#
# Disc length: 1835 seconds
#
# Revision: 0
# Processed by: cddbd v1.5.1PL0 Copyright (c) Steve Scherf et al.
# Submitted via: CDex 1.51
#
DISCID=35072905
DTITLE=ミルフィーユ・桜庭／新谷良子 - ミルフィーユ THE BEST トラ☆トラ☆ミルフィーユ
DYEAR=2005
DGENRE=Trance
TTITLE0=YOU GET A CHANCE ! -Cyber Trance Mix-
TTITLE1=Happyで行こう！ -Hyper Trance Mix-
TTITLE2=チームメイト -絶妙☆Trance Mix-
TTITLE3=エキサイティング・ロボット -Milfeulle VS Robot Mix-
TTITLE4=LUCKY GIRL (Self Covered) -Psychedelic Trance Mix-
EXTD=YEAR: 2005
EXTT0=
EXTT1=
EXTT2=
EXTT3=
EXTT4=
PLAYORDER=
